<svg id="logo" xmlns="http://www.w3.org/2000/svg" width="87.305" height="91.923" viewBox="0 0 87.305 91.923">
  <path id="Path_1" data-name="Path 1" d="M105.04,111.705a11.28,11.28,0,0,1,4.564,9.614,13.457,13.457,0,0,1-4.661,10.586q-4.661,4.1-12.039,4.078A18.06,18.06,0,0,1,79.856,131v1.026a7.221,7.221,0,0,1,.275,1.426,2.245,2.245,0,0,1-2.555,2.528c-1.842,0-2.771-.967-2.771-2.906a.735.735,0,0,1,.211-.54l.313-3.6c.162-1.8.238-2.954.238-3.462a33.271,33.271,0,0,0-.378-4.148,33.484,33.484,0,0,1-.383-4.153s0,0,0-.043v-.081a3.457,3.457,0,0,1,.654-2.214,4.812,4.812,0,0,1,2.025-1.9,4.672,4.672,0,0,1,1.885-.5,4.861,4.861,0,0,1,4.618,2.7,4.915,4.915,0,0,1-1.7,6.227,4.785,4.785,0,0,1-1.982.708,10.137,10.137,0,0,0,3.16,6.222q3.284,3.062,8.938,3.062a12.983,12.983,0,0,0,8.35-2.49,8.226,8.226,0,0,0,3.106-6.778q0-6.578-8.3-8.026l-3.943-.691a42.677,42.677,0,0,1-9.371-2.522h0a15.765,15.765,0,0,0,6.562-3.683l.054-.049c1.329.356,2.954.691,4.9,1.01Q101.988,109.421,105.04,111.705Z" transform="translate(-34.402 -49.266)" fill="#9bb53d"/>
  <path id="Path_2" data-name="Path 2" d="M121.782,86.332v.027a4.284,4.284,0,0,1-.032.54,3.381,3.381,0,0,1-.643,1.917,4.842,4.842,0,1,1-4.461-7.248,7.588,7.588,0,0,0-2.657-4.861,10.742,10.742,0,0,0-6.233-2.274.187.187,0,0,0-.043-.14,15.5,15.5,0,0,0-2.052-4.553h.681a14.722,14.722,0,0,1,10.975,4.321v-1q0-2.7,2.128-2.7,2.328,0,2.328,2.949v.41c0,.092-.07.778-.205,2.058a44.6,44.6,0,0,0-.205,4.6c0,.227.043.961.14,2.193l.2,2.744a4.937,4.937,0,0,1,.07.956Z" transform="translate(-48.594 -32.074)" fill="#9bb53d"/>
  <path id="Path_3" data-name="Path 3" d="M99.33,78.265a15.917,15.917,0,0,1,.54,4.018A15.749,15.749,0,0,1,94.879,93.8a15.6,15.6,0,0,1-2.852-1,6.828,6.828,0,0,1-3.943-6.432,7.351,7.351,0,0,1,2.652-5.952A10.827,10.827,0,0,1,97.893,78.2C98.4,78.2,98.871,78.227,99.33,78.265Z" transform="translate(-40.508 -35.965)" fill="#e86a96"/>
  <path id="Path_4" data-name="Path 4" d="M76.959,9.768c3.872,0,6.724,4.4,3.84,8.474a1.561,1.561,0,0,1-.4.4c-3.991,2.8-8.253.146-8.447-3.586q-1.4,1.248-1.4,4.521V35.26h-.032v.432a16.484,16.484,0,0,0-2.943-.275,15.565,15.565,0,0,0-2.808.259V35.26l-.157.016v-15.7q0-4.018-2.16-4.99v.205c0,3.872-4.391,6.724-8.469,3.845a1.728,1.728,0,0,1-.4-.394c-2.879-4.078,0-8.474,3.845-8.474a4.569,4.569,0,0,1,.47.027c.14,0,.286-.027.443-.027a8.177,8.177,0,0,1,1,.076l3.781.5a33.939,33.939,0,0,0,4.44.286,37.948,37.948,0,0,0,4.861-.356l3.295-.432a4.58,4.58,0,0,1,1-.076h.238Z" transform="translate(-24.106 -4.491)" fill="#9bb53d"/>
  <path id="Path_5" data-name="Path 5" d="M85.4,57a15.825,15.825,0,0,1,10.262,6.789,16.8,16.8,0,0,0-10.8,3.781l-.167.162a76.571,76.571,0,0,0,.654-10.3H85.4Z" transform="translate(-38.95 -26.215)" fill="#e86a96"/>
  <path id="Path_6" data-name="Path 6" d="M72.856,103.169a16.247,16.247,0,0,1-2.873.54c-.443.038-.9.065-1.35.065A15.814,15.814,0,0,1,54.59,95.246a17.46,17.46,0,0,0,12.2-4.8,15.02,15.02,0,0,0-.205,2.4,11.628,11.628,0,0,0,1.766,6.33,10.515,10.515,0,0,0,4.5,3.986Z" transform="translate(-25.107 -41.599)" fill="#e86a96"/>
  <path id="Path_7" data-name="Path 7" d="M85.972,57v.432H85.94V57Z" transform="translate(-39.525 -26.215)" fill="#9bb53d"/>
  <path id="Path_8" data-name="Path 8" d="M75.132,57v.416H74.97v-.405Z" transform="translate(-34.479 -26.215)" fill="#9bb53d"/>
  <path id="Path_9" data-name="Path 9" d="M64.084,57.416h.162a80.206,80.206,0,0,1-.459,8.1q-1.2,9.376-11.644,9.376h-.681A15.7,15.7,0,0,1,64.084,57Z" transform="translate(-23.578 -26.215)" fill="#e86a96"/>
  <path id="Path_10" data-name="Path 10" d="M40.087,78.914c-.238,0-.47.032-.713.032q-7.264,0-11.8-3.781a12.06,12.06,0,0,1-4.531-9.722,10.5,10.5,0,0,1,2.8-7.426A9.117,9.117,0,0,1,32.8,54.993a7.329,7.329,0,0,1,4.861,1.555A5.034,5.034,0,0,1,39.53,60.6a4.472,4.472,0,0,1-1.08,3.008,3.386,3.386,0,0,1-2.63,1.28,3.446,3.446,0,0,1-2.317-.864,2.625,2.625,0,0,1-1.048-2.009,2.285,2.285,0,0,1,.967-1.863,2.252,2.252,0,0,0-1.037-.346,3.25,3.25,0,0,0-2.663,1.62,6.378,6.378,0,0,0-1.14,3.781,7.864,7.864,0,0,0,2.976,6.3,11.147,11.147,0,0,0,6.924,2.463,15.852,15.852,0,0,0,1.6,4.947Z" transform="translate(-10.598 -25.288)" fill="#9bb53d"/>
  <path id="Path_11" data-name="Path 11" d="M43.655,0Q25.692,0,13.41,11.774,0,24.655,0,45.994,0,66.3,12.557,79.242q12.357,12.687,31.1,12.681,17.5,0,29.862-11.45Q87.305,67.657,87.305,45.994q0-21.339-13.335-34.155Q61.673,0,43.655,0ZM70.509,79.615a37.637,37.637,0,0,1-26.81,10.5q-16.03,0-27-10.8T5.666,46q0-22.619,11.045-33.41a37.216,37.216,0,0,1,27-10.8A38,38,0,0,1,70.4,12.19q11.261,10.4,11.261,33.793Q81.64,69.131,70.509,79.615Z" fill="#9bb53d"/>
</svg>
